<?xml version="1.0" standalone="no"?>
<!DOCTYPE svg PUBLIC "-//W3C//DTD SVG 20010904//EN"
 "http://www.w3.org/TR/2001/REC-SVG-20010904/DTD/svg10.dtd">
<svg version="1.0" xmlns="http://www.w3.org/2000/svg"
 width="512.000000pt" height="512.000000pt" viewBox="0 0 512.000000 512.000000"
 preserveAspectRatio="xMidYMid meet">
<metadata>
Created by potrace 1.14, written by Peter Selinger 2001-2017
</metadata>
<g transform="translate(0.000000,512.000000) scale(0.100000,-0.100000)"
fill="#000000" stroke="none">
<path d="M2192 5100 c-118 -31 -186 -73 -298 -185 -97 -95 -205 -175 -287
-208 -20 -9 -40 -16 -42 -16 -3 0 -57 -27 -120 -60 -627 -326 -1076 -882
-1255 -1554 -16 -62 -36 -152 -44 -202 -8 -49 -18 -106 -21 -125 -3 -19 -9
-125 -12 -235 -4 -155 -2 -232 11 -340 59 -489 240 -914 552 -1295 53 -64 233
-244 295 -295 34 -27 67 -54 73 -60 6 -6 34 -26 61 -45 28 -19 52 -37 55 -40
16 -18 160 -106 250 -154 282 -149 545 -230 870 -271 144 -17 485 -13 620 9
144 23 159 25 245 47 380 96 685 252 1010 519 36 30 240 234 275 276 235 281
418 635 504 979 28 114 30 121 53 270 25 162 24 525 -1 675 -3 14 -7 43 -10
65 -2 22 -16 89 -30 149 -15 59 -28 131 -31 158 -13 127 -62 261 -130 353 -24
33 -65 96 -91 140 -129 218 -240 362 -413 535 -207 206 -403 345 -666 471
-193 93 -416 165 -618 200 -59 10 -74 17 -119 58 -142 129 -294 189 -498 196
-90 3 -131 0 -188 -15z"/>
</g>
</svg>
